Coordinates
version=1
nRows=29
nColumns=22
inDegrees=yes

Units are S.I. units (second, meters, Newtons, ...)
If the header above contains a line with 'inDegrees', this indicates whether rotational values are in degrees (yes) or radians (no).

endheader
time	pelvis_tilt	pelvis_list	pelvis_rotation	pelvis_tx	pelvis_ty	pelvis_tz	hip_flexion_r	hip_adduction_r	hip_rotation_r	knee_angle_r	ankle_angle_r	subtalar_angle_r	hip_flexion_l	hip_adduction_l	hip_rotation_l	knee_angle_l	ankle_angle_l	subtalar_angle_l	lumbar_extension	lumbar_bending	lumbar_rotation
      3.31000000	     -2.69719700	      3.65433422	     22.48325623	     -0.27815429	      0.92522386	     -0.51976674	     31.68852012	     -3.07113898	    -11.97416956	    -50.72850408	      3.67783037	      0.14175074	      1.73417042	      0.01849619	     -8.18463823	    -18.90212805	     14.99418368	      1.36817400	    -10.32530367	     -5.71862912	    -11.11022829
      3.32000000	     -2.73065869	      3.45137879	     21.89533299	     -0.27053249	      0.92453874	     -0.52164502	     32.02035224	     -2.91640347	    -12.63075906	    -47.50637881	      3.79384360	      0.22039051	      1.07680453	     -0.17894586	     -8.75968461	    -18.58937602	     15.31069463	      1.45807586	    -10.20798090	     -5.45439981	    -11.57772243
      3.33000000	     -2.76423409	      3.25581841	     21.28743454	     -0.26278204	      0.92373977	     -0.52333491	     32.22066383	     -2.70637362	    -13.16146437	    -44.09189650	      3.78488503	      0.31981376	      0.42000246	     -0.36964054	     -9.33403897	    -18.30475486	     15.63194159	      1.55730609	    -10.09263760	     -5.20744272	    -11.98795074
      3.34000000	     -2.77096078	      3.09152195	     20.66291055	     -0.25488715	      0.92288775	     -0.52486933	     32.25484442	     -2.46269960	    -13.56184773	    -40.52038306	      3.65568284	      0.42577977	     -0.29655563	     -0.52913425	     -9.87310922	    -18.00248689	     15.92752910	      1.69331481	    -10.01701905	     -4.98907079	    -12.33922808
      3.35000000	     -2.81530891	      2.93516285	     20.03507424	     -0.24689097	      0.92182923	     -0.52626446	     32.22417281	     -2.20478293	    -13.84932047	    -36.86372787	      3.38379922	      0.47236002	     -0.95128283	     -0.67248708	    -10.44749986	    -17.76930356	     16.24089870	      1.77117240	     -9.89905157	     -4.79682891	    -12.65212931
      3.36000000	     -2.90204291	      2.80101251	     19.40586356	     -0.23876900	      0.92056050	     -0.52755052	     32.14919237	     -1.96579187	    -14.06481210	    -33.19799104	      2.95248558	      0.44085442	     -1.55713271	     -0.78192844	    -11.06050339	    -17.58202976	     16.54730628	      1.79987365	     -9.73181092	     -4.64516645	    -12.92365556
      3.37000000	     -2.91900044	      2.74401627	     18.79517911	     -0.23047751	      0.91929220	     -0.52878888	     31.89456638	     -1.77754383	    -14.25173014	    -29.56902065	      2.52189871	      0.31442376	     -2.29192424	     -0.82279172	    -11.59065305	    -17.35560942	     16.83264953	      1.85778727	     -9.66250333	     -4.54696001	    -13.18364020
      3.38000000	     -2.96552564	      2.72122349	     18.20542407	     -0.22200926	      0.91782422	     -0.52999831	     31.62845889	     -1.65418839	    -14.50998779	    -26.10386476	      2.05305408	      0.09549641	     -3.01110186	     -0.81734686	    -12.11716685	    -17.14141481	     17.08880208	      1.89718357	     -9.54853181	     -4.49173496	    -13.41564428
      3.39000000	     -3.01152051	      2.74272893	     17.65289826	     -0.21336329	      0.91620629	     -0.53118019	     31.34065362	     -1.59651451	    -14.89171077	    -22.87818579	      1.63345472	     -0.17363218	     -3.74115344	     -0.77042351	    -12.60176604	    -16.95066424	     17.32928795	      1.93146335	     -9.42973788	     -4.48220387	    -13.64309886
      3.40000000	     -3.05344527	      2.79824616	     17.15120632	     -0.20455326	      0.91444404	     -0.53233643	     31.05245844	     -1.59209639	    -15.43300061	    -19.96262855	      1.34305319	     -0.42242785	     -4.46246515	     -0.70219174	    -13.03176244	    -16.81524034	     17.56829681	      1.96831234	     -9.30805887	     -4.50476526	    -13.88012366
      3.41000000	     -3.11274883	      2.85924326	     16.70598340	     -0.19557459	      0.91251921	     -0.53345907	     30.81254173	     -1.61471332	    -16.15519187	    -17.41740410	      1.18087399	     -0.59142347	     -5.13824135	     -0.64166649	    -13.39358803	    -16.74350275	     17.78743337	      2.00946089	     -9.14635514	     -4.53696427	    -14.12279164
      3.42000000	     -3.14351098	      2.93166620	     16.32425193	     -0.18643007	      0.91053435	     -0.53454108	     30.56327196	     -1.64789032	    -16.98738438	    -15.26045521	      1.29937279	     -0.68409639	     -5.81029789	     -0.60071673	    -13.64633859	    -16.74598313	     17.98286760	      2.08682875	     -9.00611029	     -4.56992878	    -14.38030691
      3.43000000	     -3.18414106	      2.98627269	     15.99777436	     -0.17716241	      0.90845879	     -0.53554318	     30.35603398	     -1.66964778	    -17.84263153	    -13.50765617	      1.58407572	     -0.69696696	     -6.40592946	     -0.60726509	    -13.80882310	    -16.86405781	     18.15209289	      2.19304294	     -8.83912933	     -4.58765429	    -14.63400724
      3.44000000	     -3.21550578	      3.00901172	     15.71589354	     -0.16776379	      0.90637179	     -0.53645614	     30.15094133	     -1.65890423	    -18.62346918	    -12.13085066	      1.96486840	     -0.70274446	     -6.94292727	     -0.67937991	    -13.86391253	    -17.09515008	     18.26904059	      2.35009126	     -8.66625660	     -4.56559591	    -14.86474970
      3.45000000	     -3.26195266	      2.98610145	     15.49312147	     -0.15826169	      0.90425675	     -0.53731740	     29.98917435	     -1.63736506	    -19.34267638	    -11.16783405	      2.41313696	     -0.76341172	     -7.36356865	     -0.83446866	    -13.83674493	    -17.49083809	     18.38631672	      2.50055088	     -8.45992353	     -4.48864059	    -15.11516464
      3.46000000	     -3.27209358	      2.91233637	     15.30114918	     -0.14860000	      0.90224775	     -0.53808960	     29.79839218	     -1.57676549	    -19.97867504	    -10.57693592	      2.82195344	     -0.96924397	     -7.74545111	     -1.08076059	    -13.71029958	    -18.01053879	     18.44304224	      2.69536881	     -8.27441196	     -4.33930631	    -15.33113778
      3.47000000	     -3.22489611	      2.77041393	     15.12445163	     -0.13873001	      0.90041268	     -0.53875345	     29.55941405	     -1.45062286	    -20.59117172	    -10.33691992	      3.10039496	     -1.48752458	     -8.12902522	     -1.43071571	    -13.47354774	    -18.61693268	     18.43156946	      3.02619171	     -8.12599132	     -4.08861637	    -15.50351182
      3.48000000	     -3.15166348	      2.57317023	     14.92098181	     -0.12857744	      0.89872805	     -0.53924890	     29.33195936	     -1.26802976	    -21.23777344	    -10.46925483	      3.25943321	     -2.30497779	     -8.50916705	     -1.85909887	    -13.24126812	    -19.27996760	     18.29307589	      3.45422128	     -7.97005104	     -3.77202742	    -15.61163304
      3.49000000	     -3.03575915	      2.30197241	     14.70452587	     -0.11820878	      0.89724771	     -0.53961398	     29.12728850	     -1.02852029	    -22.04245411	    -10.97098311	      3.22948256	     -3.28293030	     -8.87680291	     -2.38428879	    -12.96891919	    -20.03501606	     18.10915116	      3.88623968	     -7.83517600	     -3.34749897	    -15.67746918
      3.50000000	     -2.88600999	      1.95854068	     14.43371398	     -0.10757049	      0.89599929	     -0.53975746	     28.94642685	     -0.70477442	    -22.95530731	    -11.76118973	      3.01936265	     -4.49057536	     -9.25505752	     -2.99168223	    -12.70850242	    -20.83426455	     17.79229377	      4.36568616	     -7.70570012	     -2.83386591	    -15.66241356
      3.51000000	     -2.72132921	      1.54477734	     14.08707613	     -0.09667849	      0.89499154	     -0.53960549	     28.80642709	     -0.28376220	    -23.88599151	    -12.76909654	      2.65189631	     -5.85972745	     -9.63033120	     -3.67090715	    -12.49573584	    -21.67077734	     17.31585891	      4.86567498	     -7.56564419	     -2.24793670	    -15.57066823
      3.52000000	     -2.57517794	      1.06032448	     13.63440066	     -0.08554489	      0.89420760	     -0.53912732	     28.72192639	      0.25856549	    -24.68787660	    -13.89579334	      2.18199475	     -7.28303698	     -9.98029906	     -4.39822328	    -12.34177920	    -22.52866302	     16.67901090	      5.37517380	     -7.37962256	     -1.59487289	    -15.37976995
      3.53000000	     -2.46519510	      0.54571354	     13.05657929	     -0.07427601	      0.89365819	     -0.53824048	     28.68978864	      0.91704982	    -25.15636028	    -15.06075904	      1.69076670	     -8.63196814	    -10.25713686	     -5.13633508	    -12.29545404	    -23.47634469	     15.79665163	      5.90565421	     -7.16157741	     -0.93489761	    -15.09649168
      3.54000000	     -2.42547480	     -0.00405846	     12.33094944	     -0.06287316	      0.89330236	     -0.53692157	     28.73464143	      1.71711255	    -25.20885426	    -16.21460185	      1.20952570	     -9.75432232	    -10.44154552	     -5.87015757	    -12.35004842	    -24.48750863	     14.72556552	      6.44474852	     -6.86827287	     -0.26939953	    -14.70363979
      3.55000000	     -2.45306695	     -0.53758139	     11.46508846	     -0.05147559	      0.89317975	     -0.53514241	     28.81590155	      2.63764067	    -24.72859163	    -17.27746606	      0.75058508	    -10.50220340	    -10.49248119	     -6.56220901	    -12.49439247	    -25.64276977	     13.38736381	      6.88668923	     -6.54094151	      0.34393880	    -14.23941633
      3.56000000	     -2.52055977	     -1.00091078	     10.52493783	     -0.04009546	      0.89330206	     -0.53308635	     28.92431888	      3.55559200	    -23.98420194	    -18.35421369	      0.52343664	    -11.25513781	    -10.43793151	     -7.17350665	    -12.65530332	    -26.92837872	     11.74354656	      7.62887531	     -6.21728488	      0.86654019	    -13.81313884
      3.57000000	     -2.62152398	     -1.40452162	      9.49836381	     -0.02880433	      0.89368241	     -0.53070360	     28.99073878	      4.52258284	    -22.90257476	    -19.29769293	      0.32445294	    -11.65911103	    -10.25679003	     -7.71603109	    -12.80563595	    -28.37105969	      9.88290040	      8.16455921	     -5.90483044	      1.30654001	    -13.36110782
      3.58000000	     -2.74346204	     -1.70963251	      8.46494691	     -0.01762010	      0.89430601	     -0.52817185	     29.00272523	      5.42210338	    -21.74375884	    -20.16369575	      0.30577696	    -11.99548299	     -9.93933312	     -8.15930100	    -12.80725810	    -29.96697988	      7.72879821	      8.83021729	     -5.61355937	      1.63098773	    -12.95994566
      3.59000000	     -2.83871788	     -1.90292349	      7.44665885	     -0.00661833	      0.89518893	     -0.52554025	     28.89691439	      6.23192910	    -20.54202205	    -20.92497821	      0.39729532	    -12.21249720	     -9.50266016	     -8.51112911	    -12.67569951	    -31.74539197	      5.37989454	      9.36999291	     -5.40450174	      1.83545226	    -12.65337713
